<svg xmlns="http://www.w3.org/2000/svg" width="132px" height="64px" viewBox="0 0 132 64" class="block h-full w-full h-full w-full"><style type="text/css">
    .st0 {
    fill-rule: evenodd;
    clip-rule: evenodd;
    fill: #144169;
    }
</style> <g><path d="M128,20.7L128,20.7v-1.2h0.8c0.4,0,0.8,0.1,0.8,0.6c0,0.6-0.4,0.7-0.9,0.7H128z M130.2,20.1L130.2,20.1   c0-0.8-0.4-1.1-1.4-1.1h-1.4v3.8h0.6v-1.7h0.7l1,1.7h0.7l-1.1-1.7C129.8,21.1,130.2,20.8,130.2,20.1z M128.7,23.7L128.7,23.7   c-1.5,0-2.7-1.2-2.7-2.8c0-1.6,1.2-2.7,2.7-2.7s2.7,1.2,2.7,2.7C131.3,22.6,130.2,23.7,128.7,23.7z M128.7,17.6L128.7,17.6   c-1.8,0-3.3,1.4-3.3,3.3c0,2,1.5,3.3,3.3,3.3c1.8,0,3.3-1.4,3.3-3.3S130.5,17.6,128.7,17.6z M99.5,38.3L99.5,38.3   c0-1,0.3-1.9,0.7-2.5c0.5-0.7,1.2-1,2.2-1c0.9,0,1.4,0.3,1.9,0.9c0.4,0.6,0.8,1.4,1.2,2.5c0.9,2.4,2.2,3.6,3.9,3.6   c0.7,0,1.3-0.2,1.8-0.6c0.5-0.4,0.8-0.9,0.8-1.6c0-0.7-0.6-1.5-1.7-2.4c-1.1-0.9-2.2-1.7-3.3-2.5c-1.1-0.9-2.1-1.8-2.9-3   c-0.8-1.2-1.2-2.5-1.2-4.2c0-1.8,0.5-3.4,1.4-4.8c0.9-1.4,2.2-2.4,3.8-3c1.6-0.7,3.3-1.1,5.1-1.1c0.7,0,1.6,0.1,2.5,0.3   c0.9,0.2,1.4,0.4,1.4,0.4c0.1,0,0.4-0.1,0.9-0.4c0.5-0.2,0.9-0.3,1.4-0.3c0.7,0,1.4,0.3,2,0.9c0.7,0.6,1.2,1.4,1.5,2.2   c0.4,0.9,0.6,1.7,0.6,2.3c0,0.9-0.3,1.6-0.9,2.2c-0.6,0.7-1.3,1-2.1,1c-0.7,0-1.2-0.1-1.6-0.5c-0.4-0.4-0.9-0.8-1.5-1.5   c-0.6-0.7-1.1-1.2-1.5-1.5c-0.4-0.4-0.9-0.5-1.5-0.5c-0.5,0-0.9,0.1-1.3,0.4c-0.4,0.3-0.5,0.7-0.5,1.2c0,0.7,0.2,1.2,0.7,1.5   c0.4,0.4,1,0.8,1.7,1.2c1.8,1,3.2,1.8,4.2,2.5c0.9,0.7,1.8,1.5,2.5,2.6c0.7,1.1,1,2.4,1,4s-0.4,3-1.1,4.3s-1.7,2.2-3,3   c-1.2,0.8-2.6,1.4-4.1,1.8c-1.5,0.4-3,0.6-4.5,0.6c-1.8,0-3.5-0.3-5.1-0.9c-1.6-0.6-2.9-1.5-3.9-2.7C100,41.7,99.5,40.1,99.5,38.3z    M87,26.2L87,26.2c0-0.1,0.1-0.4,0.1-0.9c0.1-0.4,0.1-0.8,0.1-1.1c0-0.4-0.1-0.7-0.4-0.9c-0.2-0.1-0.6-0.3-1-0.4   c-0.4-0.1-0.8-0.3-1-0.6c-0.2-0.2-0.4-0.6-0.4-1.1c0-0.7,0.4-1.2,1.4-1.7c0.9-0.5,3-0.7,6.1-0.7c2.2,0,3.8,0.1,5,0.2   c1.2,0.1,2,0.4,2.5,0.7c0.5,0.4,0.8,0.9,0.8,1.6c0,0.5-0.1,0.9-0.4,1.1c-0.2,0.2-0.7,0.4-1.2,0.5c-0.5,0.1-0.9,0.3-1.2,0.4   c-0.3,0.2-0.5,0.5-0.6,1c-0.1,0.4-0.1,0.7-0.2,1.2c-0.1,0.4-0.1,0.8-0.2,1l-1.5,10.6c-0.2,1.4-0.3,2.2-0.3,2.5   c0,0.7,0.1,1.2,0.4,1.4c0.2,0.3,0.6,0.5,1,0.7c0.4,0.1,0.8,0.4,1,0.5c0.2,0.2,0.3,0.6,0.3,1.1c0,1.2-0.7,1.9-2,2.2   c-1.4,0.4-3.1,0.5-5.1,0.5c-2.2,0-4-0.1-5.2-0.2c-1.2-0.1-2.1-0.4-2.7-0.9c-0.6-0.4-0.9-1-0.9-1.7c0-0.6,0.1-0.9,0.4-1.1   c0.2-0.2,0.7-0.4,1.3-0.6c0.7-0.2,1.2-0.5,1.4-0.9c0.4-0.4,0.6-1.1,0.7-2L87,26.2z M59,45.9L59,45.9c-1.6,0-2.7-0.2-3.3-0.7   c-0.7-0.4-0.9-1-0.9-1.7c0-0.6,0.1-1,0.4-1.2c0.3-0.2,0.7-0.4,1.3-0.7c0.6-0.2,0.9-0.5,1.1-0.9c0.4-1.4,0.8-3.2,1.2-5.1   s0.6-3.9,0.8-5.9c0.2-2,0.3-3.7,0.3-5.1c0-0.5-0.1-0.8-0.3-1c-0.2-0.2-0.6-0.4-0.9-0.6c-0.4-0.1-0.7-0.4-0.9-0.6   c-0.2-0.1-0.4-0.4-0.4-0.9c0-1.7,1.3-2.5,3.9-2.5c1.1,0,2.7,0.1,4.9,0.1c3,0,5.3,0,6.7-0.1c2.4,0,4.3,0.5,5.6,1.6   c1.4,1,2,2.6,2,4.6c0,0.9-0.1,1.7-0.5,2.4c-0.4,0.7-0.7,1.2-1.2,1.7c-0.4,0.4-0.9,0.9-1.4,1.2c-0.5,0.4-0.7,0.7-0.7,0.8   c0,0.2,0.3,0.4,0.9,0.8c0.6,0.4,1.1,0.7,1.5,1c0.4,0.3,0.8,0.9,1.2,1.7c0.4,0.8,0.6,1.8,0.6,3.1c0,1.2-0.3,2.3-0.9,3.5   c-0.6,1.2-1.6,2.3-3,3.2c-1.4,0.9-3.3,1.3-5.7,1.3H59z M66.9,41.2L66.9,41.2c0,0.3,0.1,0.5,0.3,0.6s0.5,0.1,0.9,0.1   c2,0,3-1.7,3-4.9c0-0.7-0.1-1.2-0.2-1.7c-0.1-0.4-0.4-0.7-0.8-0.9c-0.4-0.2-0.9-0.3-1.6-0.3c-0.4,0-0.6,0-0.7,0.1   c-0.1,0-0.2,0.1-0.3,0.2c-0.1,0.1-0.1,0.3-0.1,0.6c0,0.3,0,0.5-0.1,0.7L66.9,41.2z M67.9,28.5L67.9,28.5c0,0.4,0,0.7-0.1,0.8   c0,0.3,0.1,0.4,0.1,0.6c0.1,0.1,0.4,0.2,0.7,0.2c1.9,0,2.8-1.6,2.8-4.8c0-0.8-0.1-1.4-0.4-1.8c-0.3-0.4-0.8-0.6-1.6-0.6   c-0.3,0-0.5,0-0.7,0.1c-0.1,0-0.2,0.1-0.3,0.2c-0.1,0.1-0.1,0.3-0.1,0.5c0,0.3-0.1,0.4-0.1,0.6L67.9,28.5z M30.4,38.3L30.4,38.3   c0-1,0.3-1.9,0.7-2.5c0.5-0.7,1.2-1,2.2-1c0.9,0,1.4,0.3,1.9,0.9c0.4,0.6,0.8,1.4,1.2,2.5c0.9,2.4,2.2,3.6,3.9,3.6   c0.7,0,1.3-0.2,1.8-0.6c0.5-0.4,0.7-0.9,0.7-1.6c0-0.7-0.6-1.5-1.7-2.4c-1.1-0.9-2.2-1.7-3.3-2.5c-1.1-0.9-2.1-1.8-2.9-3   c-0.8-1.2-1.2-2.5-1.2-4.2c0-1.8,0.5-3.4,1.4-4.8c0.9-1.4,2.2-2.4,3.8-3c1.6-0.7,3.3-1.1,5.1-1.1c0.7,0,1.6,0.1,2.5,0.3   c0.9,0.2,1.4,0.4,1.4,0.4c0.1,0,0.4-0.1,0.9-0.4c0.5-0.2,0.9-0.3,1.4-0.3c0.7,0,1.4,0.3,2,0.9c0.7,0.6,1.2,1.3,1.7,2.2   c0.4,0.9,0.6,1.7,0.6,2.3c0,0.9-0.3,1.6-0.9,2.2c-0.6,0.7-1.3,1-2.1,1c-0.7,0-1.2-0.1-1.6-0.5c-0.4-0.4-0.9-0.8-1.5-1.5   c-0.6-0.7-1.1-1.2-1.5-1.5c-0.4-0.4-0.9-0.5-1.5-0.5c-0.5,0-0.9,0.1-1.3,0.4c-0.4,0.4-0.6,0.8-0.6,1.3c0,0.7,0.2,1.2,0.7,1.5   c0.4,0.4,1,0.8,1.7,1.2c1.8,1,3.2,1.8,4.2,2.5s1.8,1.5,2.5,2.6c0.7,1.1,1,2.4,1,4s-0.4,3-1.1,4.3s-1.7,2.2-3,3   c-1.2,0.8-2.6,1.4-4.1,1.8c-1.5,0.4-3,0.6-4.6,0.6c-1.8,0-3.5-0.3-5.1-0.9C34.3,45,33,44,32,42.8C30.9,41.7,30.4,40.1,30.4,38.3z    M16.3,35.2L16.3,35.2c0.5-0.1,0.9-0.1,1-0.3c0.1-0.1,0.2-0.4,0.2-0.7c0-0.5-0.1-1.2-0.4-2.1c-0.2-0.9-0.5-1.6-0.8-2.3   c-0.3-0.7-0.5-1-0.7-1c-0.3,0-0.7,0.4-1.2,1.2c-0.5,0.8-0.9,1.7-1.3,2.7c-0.4,0.9-0.6,1.6-0.6,1.8c0,0.4,0.4,0.6,1.2,0.7L16.3,35.2   L16.3,35.2z M11.9,39.6c-0.9,0.1-1.5,0.2-1.8,0.5c-0.3,0.3-0.4,0.7-0.4,1.2c0,0.3,0.3,0.6,0.8,0.8c0.5,0.2,0.9,0.4,1.1,0.5   c0.2,0.1,0.3,0.5,0.3,1.1c0,0.5-0.1,1-0.4,1.4c-0.3,0.4-1,0.7-2,0.9c-1,0.2-2.6,0.4-4.6,0.4c-1.4,0-2.6-0.1-3.5-0.4S0,44.8,0,43.7   c0-0.6,0.1-0.9,0.3-1.2c0.1-0.2,0.5-0.4,0.9-0.5s0.8-0.4,1.2-0.6s0.7-0.7,1.1-1.2c0.1-0.2,0.9-1.5,2.4-3.8c1.4-2.3,2.6-4.3,3.5-5.7   c0.9-1.5,1.6-3,2.3-4.6c0.7-1.6,1.2-3,1.5-4.4c0.3-1.2,0.7-2,1.4-2.5c0.7-0.4,1.7-0.7,3-0.7c1.1,0,2.1,0.2,2.8,0.6   c0.8,0.3,1.4,0.9,1.9,1.6c0.5,0.7,0.9,1.7,1.3,2.7c0.5,1.4,1.1,3.5,1.8,6.5c0.7,3,1.4,6.2,2.2,9.7c0.1,0.7,0.4,1.2,0.7,1.4   c0.3,0.3,0.6,0.5,1,0.7c0.4,0.1,0.7,0.3,0.9,0.5s0.3,0.6,0.3,1.2c0,1.8-2.3,2.7-6.9,2.7h-1.2h-1.1c-3.3,0-4.9-0.7-4.9-2.2   c0-0.5,0.1-0.9,0.3-1.1c0.2-0.2,0.5-0.4,0.9-0.7c0.4-0.2,0.7-0.4,0.9-0.5c0.1-0.1,0.3-0.4,0.3-0.8c0-0.4-0.1-0.7-0.2-0.8   c-0.1-0.1-0.4-0.3-0.7-0.4c-0.3-0.1-0.6-0.1-0.9-0.2H11.9z" class="st0"></path></g></svg>